<?xml version="1.0" encoding="UTF-8" standalone="no"?>
<!-- Created with Inkscape (http://www.inkscape.org/) -->

<svg
   xmlns:dc="http://purl.org/dc/elements/1.1/"
   xmlns:cc="http://creativecommons.org/ns#"
   xmlns:rdf="http://www.w3.org/1999/02/22-rdf-syntax-ns#"
   xmlns:svg="http://www.w3.org/2000/svg"
   xmlns="http://www.w3.org/2000/svg"
   xmlns:sodipodi="http://sodipodi.sourceforge.net/DTD/sodipodi-0.dtd"
   xmlns:inkscape="http://www.inkscape.org/namespaces/inkscape"
   width="220.5"
   height="127.90308"
   id="svg2"
   version="1.1"
   inkscape:version="0.48.5 r10040"
   sodipodi:docname="New document 1">
  <defs
     id="defs4" />
  <sodipodi:namedview
     id="base"
     pagecolor="#ffffff"
     bordercolor="#666666"
     borderopacity="1.0"
     inkscape:pageopacity="0.0"
     inkscape:pageshadow="2"
     inkscape:zoom="4"
     inkscape:cx="100.20651"
     inkscape:cy="62.628535"
     inkscape:document-units="px"
     inkscape:current-layer="layer1"
     showgrid="false"
     showguides="true"
     inkscape:guide-bbox="true"
     inkscape:snap-global="true"
     fit-margin-top="0"
     fit-margin-left="0"
     fit-margin-right="0"
     fit-margin-bottom="0"
     inkscape:window-width="1920"
     inkscape:window-height="1018"
     inkscape:window-x="-8"
     inkscape:window-y="-8"
     inkscape:window-maximized="1" />
  <metadata
     id="metadata7">
    <rdf:RDF>
      <cc:Work
         rdf:about="">
        <dc:format>image/svg+xml</dc:format>
        <dc:type
           rdf:resource="http://purl.org/dc/dcmitype/StillImage" />
        <dc:title></dc:title>
      </cc:Work>
    </rdf:RDF>
  </metadata>
  <g
     inkscape:label="Layer 1"
     inkscape:groupmode="layer"
     id="layer1"
     transform="translate(-20,-899.86218)">
    <g
       id="g2997"
       transform="translate(20.25,900.11218)">
      <line
         id="line2989"
         y2="100"
         y1="0"
         x2="50"
         x1="50"
         style="stroke:#dcdcdc;stroke-width:0.5" />
      <line
         id="line2991"
         y2="50"
         y1="50"
         x2="100"
         x1="0"
         style="stroke:#dcdcdc;stroke-width:0.5" />
    </g>
    <g
       id="g3017"
       transform="translate(140.25,900.11218)">
      <line
         id="line3005"
         y2="99.75"
         y1="0.25"
         x2="99.75"
         x1="0.25"
         style="stroke:#dcdcdc;stroke-width:0.5" />
      <line
         id="line3007"
         y2="0.25"
         y1="99.75"
         x2="99.75"
         x1="0.25"
         style="stroke:#dcdcdc;stroke-width:0.5" />
      <line
         id="line3009"
         y2="100"
         y1="0"
         x2="50"
         x1="50"
         style="stroke:#dcdcdc;stroke-width:0.5" />
      <line
         id="line3011"
         y2="50"
         y1="50"
         x2="100"
         x1="0"
         style="stroke:#dcdcdc;stroke-width:0.5" />
    </g>
    <g
       style="font-size:19.10581207px;font-style:normal;font-variant:normal;font-weight:normal;font-stretch:normal;line-height:125%;letter-spacing:0px;word-spacing:0px;fill:#000000;fill-opacity:1;stroke:none;font-family:Adobe Kaiti Std R;-inkscape-font-specification:Adobe Kaiti Std R"
       id="text3023">
      <path
         d="m 36.042988,1020.0779 4.528019,0 0,-0.535 c -0.718055,0.023 -1.168628,-0.047 -1.351719,-0.2101 -0.183098,-0.1632 -0.261113,-0.5581 -0.234043,-1.1846 l 0,-6.9735 2.349985,0 0,-0.6687 -2.349985,0 0,-1.2992 c -0.02229,-0.7105 0.0605,-1.4102 0.248373,-2.0992 0.187867,-0.689 0.614558,-1.0592 1.280073,-1.1105 0.28817,0.01 0.504699,0.1047 0.649589,0.2842 0.144878,0.1795 0.26588,0.3841 0.363006,0.6137 0.08796,0.2389 0.193835,0.449 0.31763,0.6305 0.123782,0.1815 0.310857,0.2771 0.561226,0.2866 0.200203,-0 0.349067,-0.061 0.446592,-0.1791 0.09751,-0.1182 0.146071,-0.2878 0.14568,-0.5087 -0.0076,-0.4092 -0.231264,-0.804 -0.671083,-1.1845 -0.439833,-0.3805 -1.050414,-0.5843 -1.831746,-0.6114 -0.67666,-0.035 -1.334209,0.2114 -1.97265,0.7379 -0.638447,0.5266 -0.980755,1.5416 -1.026924,3.045 l 0,1.3947 -1.413812,0 0,0.6687 1.413812,0 0,6.9353 c 0.02428,0.6281 -0.04816,1.0293 -0.217326,1.2037 -0.169165,0.1743 -0.580731,0.2507 -1.234697,0.2292 z"
         style=""
         id="path3821" />
      <path
         d="m 44.542958,1006.6849 c -0.264694,0 -0.485204,0.1075 -0.66153,0.3152 -0.17633,0.2078 -0.267878,0.5039 -0.274642,0.8884 0.0068,0.3845 0.09831,0.6807 0.274642,0.8884 0.176326,0.2078 0.396836,0.3129 0.66153,0.3153 0.27464,-0 0.503907,-0.1075 0.687801,-0.3153 0.183887,-0.2077 0.279415,-0.5039 0.286583,-0.8884 -0.0036,-0.3594 -0.09195,-0.6484 -0.265089,-0.8669 -0.173148,-0.2185 -0.409579,-0.3307 -0.709295,-0.3367 z m 0.687801,3.5727 c -0.436645,0.2452 -0.86254,0.4379 -1.277685,0.578 -0.415149,0.1401 -0.893584,0.2468 -1.435306,0.32 l 0,0.4585 c 0.644016,-0.026 1.046824,0.031 1.208427,0.1696 0.161599,0.1389 0.230061,0.5154 0.205385,1.1296 l 0,5.2158 c 0.02348,0.6106 -0.04737,1.0039 -0.21255,1.1798 -0.165185,0.1759 -0.565605,0.2539 -1.201262,0.234 l 0,0.535 4.222331,0 0,-0.535 c -0.598248,0.019 -0.973194,-0.058 -1.124841,-0.2316 -0.151654,-0.174 -0.216135,-0.5617 -0.193444,-1.1631 l 0,-7.7759 z"
         style=""
         id="path3823" />
      <path
         d="m 52.383771,1020.3071 c 0.56321,0.022 1.175383,-0.1225 1.836522,-0.4346 0.661125,-0.3121 1.258969,-0.925 1.793535,-1.8389 l -0.554061,-0.2866 c -0.158027,0.3698 -0.477249,0.7622 -0.957667,1.1774 -0.480432,0.4151 -1.14833,0.6404 -2.003696,0.6758 -0.473266,-0 -0.907121,-0.1158 -1.301566,-0.3367 -0.394454,-0.2209 -0.718452,-0.529 -0.971996,-0.9242 -0.27186,-0.4494 -0.458935,-0.9454 -0.561227,-1.4879 -0.102296,-0.5425 -0.150856,-1.1292 -0.145679,-1.7601 l 6.476787,0 c 0.02069,-1.2211 -0.264303,-2.3181 -0.854974,-3.2909 -0.590688,-0.9728 -1.611243,-1.487 -3.061667,-1.5428 -1.384759,0.045 -2.422031,0.5334 -3.111819,1.4664 -0.689792,0.933 -1.034488,2.0427 -1.034089,3.3291 0.01791,1.8071 0.416739,3.1365 1.196486,3.9883 0.779744,0.8518 1.832937,1.2737 3.159583,1.2657 z m -2.865835,-5.8845 c 0.105476,-1.3744 0.429474,-2.3082 0.971996,-2.8013 0.542514,-0.4932 1.071897,-0.7248 1.58815,-0.695 0.685082,0.021 1.199988,0.2339 1.54472,0.639 0.344719,0.4051 0.573749,0.8771 0.687092,1.4159 0.113329,0.5389 0.165457,1.0193 0.156383,1.4414 z"
         style=""
         id="path3825" />
      <path
         d="m 57.349551,1020.0779 4.241436,0 0,-0.535 c -0.616557,0.019 -1.002648,-0.058 -1.158275,-0.2316 -0.155635,-0.174 -0.221708,-0.5617 -0.19822,-1.1631 l 0,-12.6861 -0.17195,-0.1337 c -0.427092,0.244 -0.84821,0.4343 -1.263356,0.5708 -0.415149,0.1365 -0.89836,0.2456 -1.449635,0.3271 l 0,0.4586 c 0.652374,-0.019 1.057571,0.048 1.215592,0.2006 0.158017,0.1528 0.22409,0.5063 0.19822,1.0603 l 0,10.1833 c 0.02587,0.6106 -0.0402,1.0039 -0.19822,1.1798 -0.158021,0.1759 -0.563217,0.2539 -1.215592,0.234 z"
         style=""
         id="path3827" />
      <path
         d="m 69.64196,1011.3084 c -0.239225,-0.2527 -0.572776,-0.4876 -1.000654,-0.7045 -0.427892,-0.2169 -0.947722,-0.3323 -1.559492,-0.3463 -1.473123,0.043 -2.553382,0.5306 -3.240782,1.464 -0.687403,0.9334 -1.027323,2.0566 -1.019759,3.3697 0.0204,1.4358 0.251319,2.5319 0.692753,3.2883 0.441431,0.7564 0.970962,1.2709 1.588593,1.5433 0.617625,0.2724 1.200934,0.4005 1.749928,0.3842 0.708493,-0.018 1.302357,-0.154 1.781594,-0.4083 0.479224,-0.2544 0.834269,-0.5195 1.065136,-0.7953 l 0.03821,0 0.05732,1.1081 0.152844,0.1147 c 0.391258,-0.129 0.783718,-0.2102 1.177381,-0.2436 0.393645,-0.034 0.790881,-0.048 1.191709,-0.043 l 0,-0.4586 c -0.474066,0.02 -0.78692,-0.039 -0.938561,-0.1767 -0.151659,-0.1377 -0.220917,-0.4736 -0.207773,-1.0078 l 0,-12.9536 -0.210161,-0.1146 c -0.354655,0.2444 -0.729602,0.4339 -1.12484,0.5684 -0.395254,0.1345 -0.860952,0.238 -1.397095,0.3104 l 0,0.4777 c 0.553259,-0.017 0.903527,0.055 1.050807,0.2173 0.147264,0.162 0.210949,0.5163 0.191055,1.0628 l 0,3.3434 z m 0.03821,6.8589 c -0.27067,0.3598 -0.617754,0.6815 -1.041253,0.9649 -0.423513,0.2834 -0.904336,0.433 -1.44247,0.4489 -0.826718,-0.01 -1.494616,-0.3912 -2.003697,-1.1439 -0.509086,-0.7527 -0.770991,-1.817 -0.785716,-3.193 -0.01451,-0.4737 0.03573,-1.04 0.150722,-1.699 0.114984,-0.659 0.381754,-1.2437 0.80031,-1.7542 0.41855,-0.5104 1.075923,-0.7795 1.97212,-0.8074 0.491962,0.011 0.940942,0.1513 1.346942,0.4204 0.405986,0.269 0.740333,0.6002 1.003042,0.9934 z"
         style=""
         id="path3829" />
      <path
         d="m 94.666579,1009.3214 c 0.129344,-0.109 0.185864,-0.2157 0.169562,-0.32 -0.01634,-0.1042 -0.136542,-0.2396 -0.360618,-0.406 -0.171966,-0.1353 -0.410786,-0.2945 -0.716459,-0.4776 -0.305704,-0.1831 -0.563629,-0.3232 -0.773775,-0.4203 -0.240825,-0.1043 -0.437453,-0.1632 -0.589884,-0.1768 -0.152461,-0.014 -0.306101,0.014 -0.460922,0.081 -0.134696,0.074 -0.391795,0.1491 -0.771299,0.2258 -0.37953,0.077 -1.219702,0.2085 -2.52052,0.3955 -1.300838,0.1871 -3.400562,0.4831 -6.299175,0.8881 -0.713676,-0.3407 -1.139571,-0.4665 -1.277685,-0.3773 -0.13812,0.089 -0.06249,0.3168 0.226879,0.683 0.204187,0.3212 0.431066,1.1547 0.680636,2.5004 0.249562,1.3458 0.443006,2.8814 0.580331,4.6068 0.05214,0.6528 0.138909,1.148 0.260313,1.4855 0.121396,0.3375 0.251154,0.4983 0.389276,0.4824 0.125375,-0.01 0.218514,-0.1142 0.279419,-0.3128 0.06089,-0.1987 0.08239,-0.5465 0.06448,-1.0437 0.513854,-0.033 1.167423,-0.091 1.960709,-0.1719 0.793271,-0.081 1.451617,-0.1576 1.975038,-0.2293 0.282594,-0.032 0.696547,-0.068 1.241862,-0.1075 0.545293,-0.039 0.90193,-0.061 1.069911,-0.064 0.292542,-0.018 0.528973,0.066 0.709294,0.2531 0.180297,0.1871 0.325977,0.5867 0.43704,1.1989 0.0987,0.5306 0.178306,0.8832 0.23882,1.058 0.06049,0.1747 0.140094,0.2551 0.23882,0.2412 0.09591,-0.01 0.24796,-0.1091 0.456145,-0.3105 0.208157,-0.2014 0.412746,-0.4673 0.613766,-0.7977 0.1791,-0.2854 0.336721,-0.646 0.472863,-1.0818 0.136113,-0.4359 0.265075,-1.0114 0.386888,-1.7267 0.02334,-0.1381 0.07216,-0.5136 0.146475,-1.1265 0.07428,-0.6129 0.148584,-1.246 0.222899,-1.8992 0.07428,-0.6533 0.123109,-1.1094 0.146476,-1.3686 0.04058,-0.322 0.145664,-0.6476 0.315242,-0.9767 0.169545,-0.3292 0.331942,-0.564 0.487192,-0.7046 z m -2.120718,0.057 c -0.0048,1.083 -0.07644,2.2508 -0.214938,3.5034 -0.138529,1.2527 -0.315256,2.3966 -0.530179,3.4319 -0.05335,0.2866 -0.137733,0.4251 -0.253149,0.4155 -0.115443,-0.01 -0.285801,-0.1671 -0.511074,-0.4728 -0.130567,-0.1907 -0.308886,-0.3204 -0.534956,-0.3893 -0.226094,-0.069 -0.576362,-0.079 -1.050806,-0.031 -0.09315,0.01 -0.293759,0.034 -0.601825,0.072 -0.308088,0.038 -0.680646,0.091 -1.117676,0.1576 l 0.152845,-3.1715 c 0.413148,-0.071 0.905115,-0.1584 1.475905,-0.2627 0.570767,-0.1043 1.034076,-0.2014 1.38993,-0.2914 0.202585,-0.066 0.275027,-0.1679 0.217325,-0.3057 -0.05773,-0.1377 -0.25754,-0.2587 -0.599437,-0.363 -0.161215,-0.037 -0.39287,-0.035 -0.694965,0.01 -0.302118,0.042 -0.624524,0.1158 -0.967219,0.2221 -0.05016,0.02 -0.14569,0.047 -0.286583,0.081 -0.140914,0.034 -0.312864,0.071 -0.515851,0.1099 0.03064,-0.4375 0.06965,-0.8713 0.117022,-1.3016 0.04736,-0.4303 0.09114,-0.7543 0.131351,-0.972 0.05253,-0.1528 0.02865,-0.2866 -0.07165,-0.4012 -0.100314,-0.1146 -0.363015,-0.2675 -0.788105,-0.4586 0.850984,-0.098 1.651825,-0.1834 2.402525,-0.2555 0.750677,-0.072 1.274488,-0.1142 1.571433,-0.1266 0.412746,-0.021 0.728784,0.031 0.948113,0.1577 0.219302,0.1265 0.329955,0.3415 0.33196,0.6448 z m -5.655248,3.6682 -0.05732,3.1333 c -0.616562,0.079 -1.222367,0.1601 -1.817418,0.2436 -0.595065,0.084 -1.091013,0.1553 -1.487845,0.215 -0.06011,-0.861 -0.15484,-1.938 -0.284196,-3.2313 -0.129365,-1.2932 -0.276637,-2.5661 -0.441816,-3.8187 0.271055,-0.01 0.564803,-0.038 0.881244,-0.086 0.316431,-0.048 0.691377,-0.1146 1.124841,-0.2006 0.221299,-0.039 0.47604,-0.08 0.764222,-0.1241 0.288168,-0.044 0.600225,-0.085 0.936173,-0.1242 0.12577,0.2989 0.222889,0.7089 0.29136,1.2299 0.06845,0.521 0.0987,1.1937 0.09075,2.018 -0.419137,0.078 -0.837071,0.1557 -1.253803,0.2317 -0.416747,0.076 -0.78214,0.1389 -1.096181,0.1886 -0.267484,0.049 -0.405999,0.1091 -0.415546,0.1815 -0.0096,0.072 0.109851,0.1521 0.358229,0.2389 0.189855,0.066 0.483603,0.091 0.881244,0.074 0.397628,-0.017 0.906313,-0.074 1.526057,-0.1696 z"
         style=""
         id="path3831" />
    </g>
    <g
       style="font-size:19.10581207px;font-style:normal;font-variant:normal;font-weight:normal;font-stretch:normal;line-height:125%;letter-spacing:0px;word-spacing:0px;fill:#000000;fill-opacity:1;stroke:none;font-family:Adobe Kaiti Std R;-inkscape-font-specification:Adobe Kaiti Std R"
       id="text3033">
      <path
         d="m 158.89319,1010.3914 -0.19105,-0.1338 c -0.37575,0.2536 -0.75627,0.4486 -1.14156,0.5851 -0.3853,0.1366 -0.81358,0.2408 -1.28485,0.3129 l 0,0.4585 c 0.54491,-0.02 0.89279,0.049 1.04364,0.2078 0.15086,0.1588 0.21693,0.529 0.19822,1.1105 l 0,5.1967 c 0.0199,0.619 -0.0438,1.0146 -0.19105,1.1869 -0.14728,0.1724 -0.49754,0.248 -1.05081,0.2269 l 0,0.535 4.22233,0 0,-0.535 c -0.67228,0.019 -1.09499,-0.058 -1.26813,-0.2316 -0.17315,-0.174 -0.24718,-0.5617 -0.2221,-1.1631 l 0,-5.3113 c 0.38051,-0.5338 0.7467,-0.9613 1.09857,-1.2825 0.35185,-0.3212 0.69894,-0.486 1.04125,-0.4943 0.17632,-0 0.31564,0.05 0.41794,0.1576 0.10228,0.1075 0.19861,0.2842 0.28897,0.5302 0.0864,0.2185 0.19065,0.3785 0.31285,0.48 0.12219,0.1015 0.25991,0.1516 0.41316,0.1504 0.19344,-0 0.34628,-0.066 0.45853,-0.1934 0.11224,-0.1278 0.16956,-0.3117 0.17195,-0.5517 -0.003,-0.3164 -0.14529,-0.6197 -0.42748,-0.9099 -0.28222,-0.2901 -0.68741,-0.4454 -1.2156,-0.4657 -0.47685,-0 -0.91309,0.127 -1.30873,0.3893 -0.39565,0.2623 -0.81278,0.6739 -1.25141,1.2347 l -0.0382,0 z"
         style=""
         id="path3810" />
      <path
         d="m 166.13729,1006.6849 c -0.26469,0 -0.4852,0.1075 -0.66153,0.3152 -0.17633,0.2078 -0.26788,0.5039 -0.27464,0.8884 0.007,0.3845 0.0983,0.6807 0.27464,0.8884 0.17633,0.2078 0.39684,0.3129 0.66153,0.3153 0.27464,-0 0.50391,-0.1075 0.6878,-0.3153 0.18389,-0.2077 0.27942,-0.5039 0.28658,-0.8884 -0.004,-0.3594 -0.0919,-0.6484 -0.26509,-0.8669 -0.17314,-0.2185 -0.40957,-0.3307 -0.70929,-0.3367 z m 0.6878,3.5727 c -0.43664,0.2452 -0.86254,0.4379 -1.27768,0.578 -0.41515,0.1401 -0.89359,0.2468 -1.43531,0.32 l 0,0.4585 c 0.64402,-0.026 1.04682,0.031 1.20843,0.1696 0.1616,0.1389 0.23006,0.5154 0.20538,1.1296 l 0,5.2158 c 0.0235,0.6106 -0.0474,1.0039 -0.21255,1.1798 -0.16518,0.1759 -0.5656,0.2539 -1.20126,0.234 l 0,0.535 4.22233,0 0,-0.535 c -0.59825,0.019 -0.97319,-0.058 -1.12484,-0.2316 -0.15165,-0.174 -0.21614,-0.5617 -0.19344,-1.1631 l 0,-7.7759 z"
         style=""
         id="path3812" />
      <path
         d="m 176.80573,1017.919 c -0.33396,0.5206 -0.71209,0.9266 -1.1344,1.2179 -0.42232,0.2914 -0.94851,0.4395 -1.57859,0.4442 -0.81797,0.014 -1.51293,-0.3196 -2.0849,-1.0006 -0.57197,-0.681 -0.8705,-1.7932 -0.89557,-3.3363 0.0283,-1.4588 0.32041,-2.5438 0.87647,-3.2551 0.55604,-0.7113 1.20643,-1.0656 1.95115,-1.0628 0.42509,0 0.76422,0.091 1.01737,0.2603 0.25314,0.1692 0.44898,0.3945 0.5875,0.6759 0.16319,0.3455 0.31444,0.6098 0.45376,0.7929 0.1393,0.1831 0.31921,0.2754 0.53973,0.277 0.18189,-0 0.31961,-0.065 0.41316,-0.1863 0.0935,-0.1218 0.14049,-0.2889 0.1409,-0.5015 -0.0128,-0.4924 -0.30251,-0.9405 -0.8693,-1.3446 -0.56681,-0.4039 -1.33422,-0.6181 -2.30222,-0.6424 -1.36168,0.028 -2.43079,0.4976 -3.20735,1.4091 -0.77656,0.9115 -1.17221,2.0976 -1.18693,3.5584 -0.0131,1.3652 0.31882,2.5418 0.99587,3.5297 0.67705,0.9879 1.77801,1.5054 3.30288,1.5523 1.00861,-0.035 1.78557,-0.2758 2.33088,-0.7236 0.54529,-0.4478 0.94014,-0.8944 1.18454,-1.3398 z"
         style=""
         id="path3814" />
      <path
         d="m 183.12053,1020.3071 c 0.56321,0.022 1.17539,-0.1225 1.83652,-0.4346 0.66113,-0.3121 1.25897,-0.925 1.79354,-1.8389 l -0.55406,-0.2866 c -0.15803,0.3698 -0.47725,0.7622 -0.95767,1.1774 -0.48043,0.4151 -1.14833,0.6404 -2.00369,0.6758 -0.47327,-0 -0.90713,-0.1158 -1.30157,-0.3367 -0.39446,-0.2209 -0.71845,-0.529 -0.972,-0.9242 -0.27186,-0.4494 -0.45893,-0.9454 -0.56122,-1.4879 -0.1023,-0.5425 -0.15086,-1.1292 -0.14568,-1.7601 l 6.47678,0 c 0.0207,-1.2211 -0.2643,-2.3181 -0.85497,-3.2909 -0.59069,-0.9728 -1.61124,-1.487 -3.06167,-1.5428 -1.38476,0.045 -2.42203,0.5334 -3.11182,1.4664 -0.68979,0.933 -1.03448,2.0427 -1.03409,3.3291 0.0179,1.8071 0.41674,3.1365 1.19649,3.9883 0.77974,0.8518 1.83294,1.2737 3.15958,1.2657 z m -2.86583,-5.8845 c 0.10547,-1.3744 0.42947,-2.3082 0.97199,-2.8013 0.54252,-0.4932 1.0719,-0.7248 1.58815,-0.695 0.68508,0.021 1.19999,0.2339 1.54472,0.639 0.34472,0.4051 0.57375,0.8771 0.6871,1.4159 0.11332,0.5389 0.16545,1.0193 0.15638,1.4414 z"
         style=""
         id="path3816" />
      <path
         d="m 206.41519,1007.7357 c 0.2993,-0.1763 0.4219,-0.3539 0.36778,-0.5326 -0.0541,-0.1787 -0.36143,-0.3896 -0.92185,-0.6329 -0.42431,-0.181 -0.71249,-0.2439 -0.86452,-0.1886 -0.15206,0.055 -0.20142,0.2265 -0.14807,0.5134 0.039,0.2743 -0.0581,0.6285 -0.29136,1.0628 -0.23326,0.4343 -0.55009,0.9079 -0.9505,1.421 -0.1644,0.2145 -0.21296,0.349 -0.14568,0.4036 0.0673,0.054 0.20497,0 0.41316,-0.1553 0.56798,-0.4454 1.05596,-0.8203 1.46396,-1.1248 0.40797,-0.3045 0.767,-0.56 1.07708,-0.7666 z m -6.38126,1.7959 c -0.0295,-0.4092 -0.15206,-0.718 -0.36779,-0.9266 -0.21574,-0.2086 -0.63447,-0.3837 -1.25619,-0.5254 -0.29017,-0.086 -0.45495,-0.095 -0.49435,-0.026 -0.0394,0.069 0.0107,0.2178 0.15045,0.4466 0.26429,0.4426 0.49515,0.7802 0.69258,1.0126 0.19742,0.2325 0.38051,0.398 0.54929,0.4967 0.24279,0.1318 0.43066,0.1549 0.56361,0.069 0.13294,-0.086 0.18707,-0.2679 0.1624,-0.5469 z m 10.73733,7.7569 c -1.02005,-0.2412 -1.92862,-0.5252 -2.72573,-0.852 -0.79714,-0.3268 -1.6293,-0.816 -2.49646,-1.4676 -0.8672,-0.6516 -1.91588,-1.5852 -3.14605,-2.8007 0.009,-0.085 0.0147,-0.168 0.0167,-0.2484 0.002,-0.08 0.003,-0.1632 0.002,-0.2484 1.01219,-0.1237 1.91572,-0.2105 2.71061,-0.2603 0.79485,-0.05 1.3115,-0.065 1.54993,-0.045 0.56798,0.031 0.91268,-0.05 1.03409,-0.2412 0.12139,-0.1914 -0.007,-0.3912 -0.3845,-0.5994 -0.32162,-0.1871 -0.73398,-0.2523 -1.23708,-0.1958 -0.50313,0.057 -1.40268,0.2682 -2.69866,0.6352 -0.0967,0.028 -0.22809,0.058 -0.39406,0.091 -0.16599,0.033 -0.35943,0.072 -0.58033,0.1194 0.0462,-1.7235 0.10667,-2.9717 0.18151,-3.7447 0.0748,-0.773 0.17353,-1.2761 0.29613,-1.5093 0.1592,-0.2902 0.18946,-0.5171 0.0908,-0.6807 -0.0987,-0.1636 -0.42192,-0.357 -0.9696,-0.5803 -0.5079,-0.1946 -0.81996,-0.2496 -0.93618,-0.1648 -0.11623,0.085 -0.0844,0.2735 0.0955,0.566 0.201,0.2372 0.35305,0.7849 0.45615,1.6431 0.10308,0.8582 0.15482,2.3802 0.15523,4.5662 -0.65054,0.1048 -1.33645,0.2095 -2.05774,0.3142 -0.7213,0.1047 -1.35768,0.1925 -1.90914,0.2632 -0.55147,0.071 -0.89773,0.1076 -1.03878,0.1104 -0.33196,0 -0.52302,0.053 -0.57317,0.1433 -0.0502,0.091 0.0263,0.1958 0.22927,0.3152 0.31922,0.1915 0.61695,0.2958 0.89319,0.3129 0.27623,0.017 0.62172,-0.055 1.03647,-0.2173 0.25315,-0.097 0.59227,-0.1947 1.01737,-0.2938 0.4251,-0.099 0.90751,-0.1922 1.44725,-0.2794 -0.49118,1.1889 -1.23789,2.3647 -2.24013,3.5274 -1.00225,1.1626 -2.12151,2.1712 -3.3578,3.0258 -0.21255,0.1568 -0.27942,0.2683 -0.20061,0.3344 0.0788,0.066 0.31763,0.01 0.71646,-0.1815 1.18295,-0.5609 2.27515,-1.3402 3.2766,-2.3381 1.00145,-0.9978 1.9217,-2.4602 2.76076,-4.3871 -0.007,1.5695 -0.0458,2.906 -0.11702,4.0098 -0.0713,1.1037 -0.13415,1.786 -0.18867,2.0467 -0.10827,0.5883 -0.15445,1.0309 -0.13852,1.3278 0.0159,0.2969 0.11304,0.644 0.29136,1.0413 0.16677,0.4167 0.32996,0.6292 0.48958,0.6376 0.15961,0.01 0.28937,-0.166 0.38928,-0.523 0.0653,-0.1584 0.11144,-0.5533 0.13852,-1.1846 0.0271,-0.6312 -0.0128,-1.5228 -0.11941,-2.6747 -0.039,-0.5015 -0.0709,-1.0795 -0.0955,-1.7339 -0.0247,-0.6543 -0.0374,-1.3565 -0.0382,-2.1064 0.64997,0.7225 1.3131,1.4748 1.98936,2.2569 0.67625,0.7821 1.1913,1.3863 1.54517,1.8126 0.34223,0.4599 0.65547,0.7863 0.93971,0.9794 0.28421,0.193 0.70217,0.2831 1.25389,0.2703 0.55169,-0.013 1.39988,-0.098 2.54458,-0.2562 0.41354,-0.062 0.61812,-0.1437 0.61376,-0.246 -0.004,-0.1023 -0.17714,-0.1986 -0.51823,-0.2889 z"
         style=""
         id="path3818" />
    </g>
    <rect
       style="fill:none;stroke:#000000;stroke-width:0.5;stroke-linecap:round;stroke-linejoin:round;stroke-miterlimit:4;stroke-opacity:1;stroke-dasharray:none;stroke-dashoffset:4.14999989"
       id="rect3037"
       width="100"
       height="100"
       x="20.25"
       y="900.11218" />
    <rect
       y="900.11218"
       x="140.25"
       height="100"
       width="100"
       id="rect3807"
       style="fill:none;stroke:#000000;stroke-width:0.5;stroke-linecap:round;stroke-linejoin:round;stroke-miterlimit:4;stroke-opacity:1;stroke-dasharray:none;stroke-dashoffset:4.14999989" />
  </g>
</svg>
